<?xml version="1.0" standalone="no"?>
<!DOCTYPE svg PUBLIC "-//W3C//DTD SVG 20010904//EN"
 "http://www.w3.org/TR/2001/REC-SVG-20010904/DTD/svg10.dtd">
<svg version="1.0" xmlns="http://www.w3.org/2000/svg"
 width="2000.000000pt" height="838.000000pt" viewBox="0 0 2000.000000 838.000000"
 preserveAspectRatio="xMidYMid meet">

<g transform="translate(0.000000,838.000000) scale(0.100000,-0.100000)"
fill="#000000" stroke="none">
<path d="M8325 7860 c-764 -286 -1401 -526 -1414 -532 -36 -19 -55 -71 -41
-114 15 -45 9 -42 547 -259 l442 -179 3 -775 3 -776 28 -57 c104 -212 528
-360 1242 -435 243 -25 964 -26 1211 0 591 61 1005 182 1169 342 98 95 89 14
95 898 l5 778 255 100 c140 55 265 109 277 121 69 64 2 180 -91 158 -17 -4
-541 -209 -1165 -454 -624 -245 -1142 -446 -1151 -446 -17 0 -2480 996 -2492
1008 -9 9 -107 -29 1339 511 l1153 431 1312 -491 c722 -270 1325 -496 1341
-501 l27 -10 0 -539 c0 -592 -1 -584 59 -609 38 -15 75 -7 107 25 l24 24 0
599 c0 582 -1 600 -20 624 -11 14 -37 33 -58 41 -221 88 -2778 1037 -2795
1037 -12 -1 -647 -235 -1412 -520z m588 -1511 c446 -181 817 -329 825 -329 8
0 387 146 843 325 456 179 831 325 834 325 3 0 5 -319 5 -710 l0 -709 -33 -33
c-92 -93 -408 -198 -757 -253 -634 -99 -1488 -79 -2037 50 -228 53 -428 133
-497 199 l-36 33 0 722 0 722 21 -6 c11 -4 386 -155 832 -336z"/>
<path d="M11914 5936 c-44 -44 -45 -83 -5 -128 29 -33 30 -33 136 -36 59 -2
123 -1 142 3 50 9 83 45 83 90 0 86 -37 105 -201 105 l-121 0 -34 -34z"/>
<path d="M12782 5935 c-17 -14 -33 -39 -37 -55 -7 -33 15 -84 44 -100 11 -5
80 -10 153 -10 150 0 169 7 188 64 13 41 2 75 -36 105 -24 19 -39 21 -155 21
-122 0 -129 -1 -157 -25z"/>
<path d="M12473 5730 c-44 -18 -55 -60 -51 -202 3 -128 3 -130 31 -154 39 -34
96 -33 130 2 32 32 41 83 35 211 -4 93 -5 96 -36 124 -33 30 -67 36 -109 19z"/>
<path d="M104 4051 c-47 -21 -84 -64 -84 -97 0 -30 50 -79 97 -96 32 -11 1725
-13 9888 -13 l9850 0 48 24 c45 22 77 61 77 94 0 25 -42 69 -84 88 -40 18
-324 19 -9896 19 -9572 0 -9856 -1 -9896 -19z"/>
<path d="M118 3504 c-51 -16 -98 -62 -98 -98 0 -32 26 -63 73 -89 l42 -22
9865 0 9865 0 42 22 c47 26 73 57 73 89 0 38 -47 82 -103 99 -45 13 -1123 15
-9881 14 -8515 0 -9837 -2 -9878 -15z"/>
<path d="M70 1340 l0 -1310 760 0 760 0 0 125 0 125 -612 2 -613 3 -3 1183 -2
1182 -145 0 -145 0 0 -1310z"/>
<path d="M2641 1920 c-313 -44 -576 -255 -692 -554 -51 -130 -63 -204 -63
-386 0 -133 4 -183 21 -257 71 -302 265 -543 528 -652 115 -48 202 -64 355
-64 201 0 335 34 495 126 112 64 273 240 310 338 5 13 -17 26 -112 64 -80 32
-119 43 -121 35 -3 -7 -23 -40 -46 -74 -126 -184 -444 -280 -701 -212 -151 40
-291 158 -364 306 -37 76 -71 201 -71 261 0 19 18 19 729 19 l729 0 7 118 c17
288 -54 499 -229 680 -155 161 -355 247 -600 256 -61 3 -140 1 -175 -4z m309
-276 c203 -60 351 -219 386 -414 7 -41 13 -85 14 -97 l0 -23 -583 0 -584 0 9
55 c20 129 76 234 177 335 128 127 249 174 426 166 55 -3 125 -12 155 -22z"/>
<path d="M4685 1916 c-260 -42 -450 -176 -555 -391 -59 -121 -64 -111 75 -160
l120 -43 32 69 c36 77 115 167 181 206 64 38 155 63 251 69 209 14 376 -60
449 -200 24 -46 27 -64 30 -178 3 -81 0 -128 -6 -128 -28 0 -645 -72 -695 -81
-235 -42 -428 -163 -505 -316 -41 -81 -53 -138 -53 -250 1 -246 142 -414 406
-484 114 -30 337 -31 448 -1 155 42 287 140 362 267 36 63 40 66 46 43 4 -14
10 -89 14 -167 l7 -141 130 0 129 0 -3 692 c-4 769 -2 738 -73 884 -26 53 -54
89 -109 142 -83 79 -162 122 -283 153 -101 26 -291 33 -398 15z m585 -1061 c0
-174 -66 -351 -168 -453 -104 -103 -238 -151 -422 -152 -200 0 -326 69 -370
203 -16 52 -9 162 15 212 37 76 119 136 235 171 25 7 104 21 175 30 244 30
510 62 523 63 8 1 12 -20 12 -74z"/>
<path d="M8179 1919 c-75 -11 -172 -44 -237 -81 -61 -35 -164 -127 -189 -169
-10 -16 -20 -29 -24 -29 -3 0 -10 59 -14 130 l-7 130 -124 0 -124 0 0 -935 0
-935 134 0 135 0 3 588 c4 565 5 590 25 664 40 141 91 225 185 298 94 75 246
109 392 89 244 -33 377 -195 406 -495 5 -60 10 -342 10 -626 l0 -518 136 0
135 0 -3 638 -4 637 -26 97 c-38 139 -97 248 -183 334 -38 39 -92 82 -119 97
-146 81 -331 112 -507 86z"/>
<path d="M10245 1920 c-371 -50 -656 -299 -753 -659 -23 -88 -26 -113 -26
-296 -1 -157 3 -214 17 -267 91 -359 335 -599 682 -673 97 -21 311 -24 405 -6
363 68 627 311 716 659 31 120 42 325 25 456 -54 402 -316 689 -706 772 -89
19 -269 26 -360 14z m354 -286 c223 -74 368 -247 411 -490 8 -46 11 -123 8
-220 -6 -183 -31 -273 -109 -388 -122 -183 -299 -271 -539 -269 -95 0 -129 5
-196 27 -204 66 -352 234 -400 456 -24 106 -23 321 0 425 71 318 314 504 642
490 75 -3 122 -11 183 -31z"/>
<path d="M13715 1916 c-261 -43 -451 -176 -559 -393 -58 -115 -60 -109 79
-159 66 -24 121 -44 122 -44 0 0 8 20 16 45 68 198 286 321 537 302 200 -16
347 -119 379 -267 13 -61 15 -240 2 -240 -40 0 -653 -73 -714 -85 -324 -65
-514 -239 -542 -497 -29 -271 141 -489 430 -554 105 -24 312 -24 409 0 155 37
278 122 366 254 l55 82 7 -58 c4 -31 10 -105 14 -164 l6 -108 124 0 124 0 0
688 c0 755 0 751 -62 881 -46 98 -151 199 -259 251 -46 22 -115 47 -154 55
-100 22 -284 27 -380 11z m582 -1088 c-15 -255 -113 -425 -299 -518 -96 -48
-187 -64 -327 -58 -133 7 -202 31 -265 94 -61 60 -79 113 -75 212 3 66 9 86
34 128 38 61 114 115 203 143 54 18 559 87 721 100 12 1 13 -17 8 -101z"/>
<path d="M15825 1916 c-88 -17 -163 -47 -230 -91 -52 -35 -152 -133 -172 -170
-7 -11 -14 -17 -17 -15 -3 3 -8 48 -11 100 -3 52 -8 110 -11 128 l-5 32 -124
0 -125 0 0 -935 0 -935 135 0 135 0 0 478 c1 509 8 678 35 782 65 251 230 383
480 383 235 0 375 -107 447 -344 22 -72 22 -87 26 -686 l3 -613 135 0 134 0 0
483 c0 265 5 536 10 602 15 192 61 316 156 415 96 101 207 144 364 143 228 -2
374 -108 447 -326 l28 -82 3 -617 3 -618 140 0 141 0 -5 627 c-4 681 -4 678
-63 841 -56 155 -169 284 -308 352 -120 59 -189 74 -341 74 -156 0 -230 -16
-363 -80 -109 -52 -194 -131 -253 -232 l-36 -61 -47 74 c-86 136 -228 239
-385 280 -87 22 -240 28 -326 11z"/>
<path d="M19095 1920 c-84 -12 -177 -37 -240 -65 -125 -55 -250 -166 -318
-282 -36 -63 -75 -159 -67 -166 3 -2 58 -22 123 -45 l118 -41 10 27 c43 115
132 217 232 265 199 96 477 66 609 -66 69 -69 88 -129 88 -272 0 -63 -2 -115
-3 -115 -38 0 -665 -75 -722 -86 -282 -56 -482 -220 -526 -432 -17 -82 -7
-233 20 -304 71 -184 247 -301 497 -329 167 -18 339 8 463 70 79 40 187 143
231 220 19 33 38 61 41 61 4 0 10 -64 13 -142 11 -208 -5 -188 143 -188 l124
0 -3 703 -3 702 -24 70 c-68 206 -216 340 -436 395 -91 23 -278 33 -370 20z
m555 -1078 c0 -173 -61 -334 -164 -438 -113 -113 -252 -159 -456 -152 -100 4
-123 8 -177 32 -80 36 -136 96 -157 167 -54 179 40 324 248 384 44 13 522 77
694 94 9 1 12 -23 12 -87z"/>
<path d="M6760 1891 c-131 -36 -268 -122 -346 -217 l-39 -47 -7 44 c-3 24 -7
79 -7 121 -1 114 7 108 -137 108 l-124 0 0 -935 0 -935 140 0 139 0 3 578 3
577 27 81 c33 97 87 183 155 246 102 94 219 132 386 126 l108 -5 -3 136 -3
136 -115 2 c-85 2 -132 -3 -180 -16z"/>
<path d="M12456 1894 c-123 -30 -274 -124 -352 -220 l-39 -47 -7 44 c-3 24 -7
79 -7 121 -1 114 7 108 -137 108 l-124 0 0 -935 0 -935 140 0 139 0 3 578 3
577 27 81 c66 193 208 328 387 365 32 6 100 9 159 7 l103 -5 -3 136 -3 136
-115 2 c-72 1 -137 -4 -174 -13z"/>
</g>
</svg>
